<?xml version="1.0" encoding="utf-8"?>
<!-- Generator: Adobe Illustrator 25.2.3, SVG Export Plug-In . SVG Version: 6.00 Build 0)  -->
<svg version="1.1" id="Слой_1" xmlns="http://www.w3.org/2000/svg" xmlns:xlink="http://www.w3.org/1999/xlink" x="0px" y="0px"
	 width="660px" height="660px" viewBox="0 0 660 660" style="enable-background:new 0 0 660 660;" xml:space="preserve">
<style type="text/css">
	.st0{fill:#020203;}
</style>
<g>
	<polygon class="st0" points="144.6,478.7 109.8,518.9 178,518.9 	"/>
	<polygon class="st0" points="176.7,560.4 245,560.4 210.2,521.6 	"/>
	<polygon class="st0" points="451.1,532.3 484.5,493.5 519.3,532.3 	"/>
	<g>
		<path class="st0" d="M338.6,13c-5.4-2.7-12-2.7-18.7,0C128.5,93.3,5.4,283.4,9.4,492.1v45.5c0,6.7,2.7,13.4,9.4,18.7
			c92.3,61.6,200.7,95,311.8,96.4h10.7h1.3c105.7-4,210.1-36.1,298.4-96.4c5.4-4,9.4-10.7,9.4-18.7v-45.5
			C654.5,283.4,531.4,93.3,338.6,13z M166,181.6C243.6,89.3,330.6,58.5,330.6,58.5c18.7,8,226.2,89.7,270.3,353.3h-54.9L441.7,260.6
			c-6.7-9.4-21.4-12-32.1-5.4c-2.7,1.3-4,4-5.4,5.4l-26.8,37.5l-73.6-105.7c-6.7-9.4-21.4-12-32.1-5.4c-2.7,1.3-4,4-5.4,5.4
			L116.5,410.5l-54.9,1.3C77.7,311.5,119.2,237.8,166,181.6z M489.9,411.8H427h-72.3l34.8-50.9l32.1-48.2L489.9,411.8z M297.2,263.3
			L297.2,263.3L297.2,263.3l53.5,76.3l-50.9,70.9h-13.4H171.4l54.9-81.6l57.5-85.7l0,0L297.2,263.3z M348,572.4L348,572.4
			l-20.1,34.8c-38.8,0-74.9-5.4-117.8-14.7l0,0c-54.9-13.4-107.1-36.1-155.2-65.6v-33.5c0-10.7,0-22.8,1.3-34.8h100.4h135.2
			c-18.7,28.1-9.4,65.6,20.1,83c2.7,1.3,5.4,2.7,6.7,4L340,555C348,557.7,350.7,565.7,348,572.4z M606.3,525.6
			c-34.8,21.4-70.9,38.8-108.4,52.2c0,0-6.7,2.7-9.4,2.7c-21.4,6.7-42.8,12-65.6,17.4c-12,2.7-25.4,4-37.5,5.4l4-6.7
			c17.4-29.4,6.7-65.6-22.8-83c-1.3-1.3-4-1.3-5.4-2.7l-21.4-9.4c-6.7-2.7-10.7-10.7-6.7-18.7c0-1.3,1.3-2.7,1.3-2.7l20.1-22.8h40.2
			H605c0,10.7,1.3,22.8,1.3,34.8V525.6z"/>
	</g>
</g>
</svg>
